<svg xmlns="http://www.w3.org/2000/svg" xmlns:xlink="http://www.w3.org/1999/xlink" width="1080" viewBox="0 0 810 809.999993" height="1080" preserveAspectRatio="xMidYMid meet"><defs><clipPath id="2bbc900eb3"><path d="M 152 68.804688 L 687 68.804688 L 687 464 L 152 464 Z M 152 68.804688 " clip-rule="nonzero"></path></clipPath></defs><g clip-path="url(#2bbc900eb3)"><path fill="#4060a1" d="M 158.964844 203.777344 L 269.703125 254.746094 L 269.703125 320.511719 L 569.023438 320.511719 L 569.023438 254.746094 L 614.792969 233.683594 L 614.792969 350.175781 C 607.367188 351.238281 601.640625 357.652344 601.640625 365.359375 C 601.640625 372.066406 605.976562 377.882812 612.207031 379.902344 L 600.957031 454.175781 C 600.613281 456.429688 601.265625 458.714844 602.761719 460.449219 C 604.253906 462.171875 606.410156 463.160156 608.675781 463.160156 L 649.707031 463.160156 C 651.972656 463.160156 654.128906 462.171875 655.632812 460.4375 C 657.113281 458.707031 657.765625 456.429688 657.425781 454.175781 L 646.175781 379.902344 C 652.40625 377.882812 656.738281 372.066406 656.738281 365.359375 C 656.738281 357.652344 651.011719 351.242188 643.585938 350.175781 L 643.585938 220.425781 L 679.773438 203.777344 C 683.855469 201.886719 686.496094 197.761719 686.496094 193.273438 C 686.496094 188.777344 683.855469 184.648438 679.769531 182.78125 L 443.816406 74.164062 C 436.089844 70.613281 427.863281 68.804688 419.363281 68.804688 C 410.863281 68.804688 402.640625 70.613281 394.917969 74.164062 L 158.96875 182.777344 C 154.882812 184.660156 152.238281 188.773438 152.238281 193.273438 C 152.238281 197.757812 154.878906 201.882812 158.964844 203.777344 Z M 158.964844 203.777344 " fill-opacity="1" fill-rule="nonzero"></path></g><path fill="#4060a1" d="M 630.960938 635.136719 L 525.253906 591.953125 C 508.433594 584.222656 497.5625 567.265625 497.5625 548.746094 L 497.5625 533.179688 C 497.5625 526.023438 498.746094 518.988281 500.757812 512.84375 C 501.335938 512.066406 558.777344 434.613281 566.761719 358.265625 L 567.011719 355.863281 L 271.714844 355.863281 L 271.964844 358.265625 C 279.964844 434.613281 337.390625 512.066406 337.65625 512.246094 C 339.988281 518.996094 341.171875 526.035156 341.171875 533.179688 L 341.171875 548.746094 C 341.171875 567.253906 330.296875 584.210938 313.558594 591.910156 L 207.703125 635.179688 C 182.496094 646.757812 164.480469 669.957031 159.488281 697.460938 L 153.882812 769.925781 L 684.855469 769.925781 L 679.226562 697.238281 C 674.234375 669.945312 656.222656 646.746094 630.960938 635.136719 Z M 630.960938 635.136719 " fill-opacity="1" fill-rule="nonzero"></path></svg>